<svg width="24" height="24" viewBox="0 0 24 24" fill="none" xmlns="http://www.w3.org/2000/svg"><path d="M12.22 2h-.44a2 2 0 0 0-2 2 2 2 0 0 1-2 2 2 2 0 0 0-2 2 2 2 0 0 1-2 2 2 2 0 0 0-2 2v.44a2 2 0 0 0 2 2 2 2 0 0 1 2 2 2 2 0 0 0 2 2 2 2 0 0 1 2 2 2 2 0 0 0 2 2h.44a2 2 0 0 0 2-2 2 2 0 0 1 2-2 2 2 0 0 0 2-2 2 2 0 0 1 2-2 2 2 0 0 0 2-2v-.44a2 2 0 0 0-2-2 2 2 0 0 1-2-2 2 2 0 0 0-2-2 2 2 0 0 1-2-2 2 2 0 0 0-2-2z" stroke="currentColor" stroke-width="2"/><circle cx="12" cy="12" r="3" stroke="currentColor" stroke-width="2"/></svg>
